<svg xmlns="http://www.w3.org/2000/svg" viewBox="0 0 32 32">
<style>
    path {
        fill: #000;
    }
    @media (prefers-color-scheme: dark) {
        path {
            fill: #fff;
        }
    }
</style>
<path d="M11.24121,25.15353a7.03176,7.03176,0,0,1-3.61916-.927A6.69278,6.69278,0,0,1,5.133,21.71213a7.14479,7.14479,0,0,1-.90169-3.59332,7.39957,7.39957,0,0,1,.88928-3.65791,6.46993,6.46993,0,0,1,2.43792-2.502,6.941,6.941,0,0,1,3.55612-.90169,6.497,6.497,0,0,1,2.74278.5715,6.59491,6.59491,0,0,1,2.23485,1.7145.91592.91592,0,0,1,.25423.83813,1.32525,1.32525,0,0,1-.55858.76217.96645.96645,0,0,1-.7875.16432,1.53436,1.53436,0,0,1-.78749-.44387,4.08362,4.08362,0,0,0-3.09829-1.32075,4.34157,4.34157,0,0,0-2.286.59682A4.13828,4.13828,0,0,0,7.27946,15.6039a5.35,5.35,0,0,0-.5591,2.51491,5.08484,5.08484,0,0,0,.5715,2.43792,4.353,4.353,0,0,0,1.58739,1.68866,4.4238,4.4238,0,0,0,2.362.62214,5.12992,5.12992,0,0,0,1.56206-.215,3.72744,3.72744,0,0,0,1.23188-.67381,1.55008,1.55008,0,0,1,.83813-.36791.99985.99985,0,0,1,.76217.24079,1.22061,1.22061,0,0,1,.48262.80093.94436.94436,0,0,1-.30486.79989A6.45182,6.45182,0,0,1,11.24121,25.15353Z"/><path d="M19.36932,13.85116a1.225,1.225,0,0,1-.86448-.30487.99319.99319,0,0,1-.32968-.76165,1.052,1.052,0,0,1,.32968-.81282,1.225,1.225,0,0,1,.86448-.30487h6.27307a1.22451,1.22451,0,0,1,.864.30487,1.05558,1.05558,0,0,1,.32968.81282.99672.99672,0,0,1-.32968.76165,1.22451,1.22451,0,0,1-.864.30487ZM21.706,25.05225a1.25856,1.25856,0,0,1-1.24531-1.29492V11.235A6.61,6.61,0,0,1,21.1851,8.0602a5.23225,5.23225,0,0,1,2.01937-2.09533,5.87852,5.87852,0,0,1,2.997-.74925,1.34067,1.34067,0,0,1,.927.33019,1.079,1.079,0,0,1,.36791.83813,1.09025,1.09025,0,0,1-.36791.82573,1.30954,1.30954,0,0,1-.927.34259,3.11878,3.11878,0,0,0-1.65146.432,2.948,2.948,0,0,0-1.10477,1.19364,3.88105,3.88105,0,0,0-.39374,1.80338V23.75733a1.26619,1.26619,0,0,1-.35551.93941A1.33545,1.33545,0,0,1,21.706,25.05225Z"/><path d="M27.91367,2A2.08869,2.08869,0,0,1,30,4.08633V27.91367A2.08869,2.08869,0,0,1,27.91367,30H4.08633A2.08869,2.08869,0,0,1,2,27.91367V4.08633A2.08869,2.08869,0,0,1,4.08633,2H27.91367m0-2H4.08633A4.08633,4.08633,0,0,0,0,4.08633V27.91367A4.08633,4.08633,0,0,0,4.08633,32H27.91367A4.08633,4.08633,0,0,0,32,27.91367V4.08633A4.08633,4.08633,0,0,0,27.91367,0Z"/></svg>
