<svg xmlns="http://www.w3.org/2000/svg" viewBox="0 0 32 32">
<style>
    path {
        fill: #000;
    }
    @media (prefers-color-scheme: dark) {
        path {
            fill: #fff;
        }
    }
</style>
<path d="M10.75426,26.20366A7.77246,7.77246,0,0,1,6.75386,25.179a7.39781,7.39781,0,0,1-2.75127-2.77926,7.89745,7.89745,0,0,1-.99668-3.97184,8.179,8.179,0,0,1,.983-4.04323,7.15146,7.15146,0,0,1,2.69473-2.76556,7.67231,7.67231,0,0,1,3.93071-.99667,7.18156,7.18156,0,0,1,3.03171.6317,7.28992,7.28992,0,0,1,2.47027,1.89511,1.01241,1.01241,0,0,1,.281.92642,1.46482,1.46482,0,0,1-.61743.84246,1.06822,1.06822,0,0,1-.87044.18163,1.696,1.696,0,0,1-.87045-.49063,4.51381,4.51381,0,0,0-3.42467-1.45988,4.7989,4.7989,0,0,0-2.52681.65969,4.57419,4.57419,0,0,0-1.71233,1.83913,5.91355,5.91355,0,0,0-.618,2.77983,5.62043,5.62043,0,0,0,.6317,2.69473,4.81138,4.81138,0,0,0,1.7546,1.86655,4.88984,4.88984,0,0,0,2.61077.68767,5.67037,5.67037,0,0,0,1.72661-.2376,4.12,4.12,0,0,0,1.36164-.74479,1.7134,1.7134,0,0,1,.92642-.40667,1.10521,1.10521,0,0,1,.84246.26616,1.3492,1.3492,0,0,1,.53347.8853,1.04388,1.04388,0,0,1-.337.88415A7.13143,7.13143,0,0,1,10.75426,26.20366Z"/><path d="M19.73859,13.7107a1.354,1.354,0,0,1-.95555-.337,1.09779,1.09779,0,0,1-.3644-.84188,1.16282,1.16282,0,0,1,.3644-.89844,1.354,1.354,0,0,1,.95555-.337h6.93387a1.35353,1.35353,0,0,1,.955.337,1.16681,1.16681,0,0,1,.3644.89844,1.10173,1.10173,0,0,1-.3644.84188,1.35349,1.35349,0,0,1-.955.337Zm2.58278,12.381a1.39114,1.39114,0,0,1-1.37649-1.43132V10.81892a7.3063,7.3063,0,0,1,.80076-3.5092,5.78341,5.78341,0,0,1,2.23209-2.31605,6.49782,6.49782,0,0,1,3.31272-.82818,1.48192,1.48192,0,0,1,1.02466.365,1.19269,1.19269,0,0,1,.40667.92642,1.20509,1.20509,0,0,1-.40667.91271,1.44749,1.44749,0,0,1-1.02466.37868,3.44732,3.44732,0,0,0-1.82542.47749,3.25845,3.25845,0,0,0-1.22114,1.31938,4.28975,4.28975,0,0,0-.43522,1.99334V24.66039a1.39955,1.39955,0,0,1-.393,1.03836A1.47611,1.47611,0,0,1,22.32137,26.09171Z"/></svg>